<svg width="25" height="25" viewBox="0 0 25 25" fill="none" xmlns="http://www.w3.org/2000/svg">
<g clip-path="url(#clip0_1_77)">
<path d="M17.993 4.11206C18.2245 4.11259 18.4537 4.15879 18.6673 4.24802C18.881 4.33725 19.0749 4.46776 19.238 4.63206C19.4012 4.79619 19.5305 4.99091 19.6183 5.20506C19.7062 5.41921 19.7509 5.64859 19.75 5.88006V21.2551L17.907 19.6261L16.87 18.6661L15.773 17.6481L16.227 19.2341H6.50701C6.27549 19.2335 6.04634 19.1873 5.83271 19.0981C5.61907 19.0089 5.42513 18.8784 5.26201 18.7141C5.0988 18.5499 4.96956 18.3552 4.8817 18.1411C4.79385 17.9269 4.7491 17.6975 4.75001 17.4661V5.88006C4.7491 5.64859 4.79385 5.41921 4.8817 5.20506C4.96956 4.99091 5.0988 4.79619 5.26201 4.63206C5.42513 4.46776 5.61907 4.33725 5.83271 4.24802C6.04634 4.15879 6.27549 4.11259 6.50701 4.11206H17.993ZM13.664 8.10606L13.544 8.24306C14.325 8.45106 15.052 8.82206 15.678 9.33206C14.8799 8.89217 14.0034 8.61259 13.098 8.50906C12.5224 8.44557 11.9413 8.45128 11.367 8.52606C11.318 8.52706 11.269 8.53306 11.221 8.54306C10.547 8.61906 9.89001 8.80206 9.27301 9.08306L8.76701 9.33206C9.42701 8.79706 10.196 8.41306 11.021 8.20906L10.935 8.10606C10.0575 8.14903 9.21503 8.46352 8.52401 9.00606C7.74046 10.557 7.31921 12.2656 7.29201 14.0031C7.58801 14.4181 7.98101 14.7541 8.43601 14.9811C8.892 15.2081 9.39679 15.3198 9.90601 15.3061L10.48 14.5951C9.87701 14.4431 9.34701 14.0851 8.98001 13.5841C9.28781 13.7881 9.61671 13.9585 9.96101 14.0921C10.369 14.2531 10.791 14.3761 11.221 14.4611C11.954 14.6021 12.707 14.6051 13.441 14.4691C13.8682 14.3943 14.2852 14.2704 14.684 14.1001C15.031 13.9691 15.361 13.8001 15.67 13.5941C15.289 14.1061 14.738 14.4671 14.116 14.6121L14.682 15.3081C15.1925 15.321 15.6984 15.2089 16.1556 14.9814C16.6128 14.7539 17.0074 14.4181 17.305 14.0031C17.2778 12.2656 16.8566 10.557 16.073 9.00606C15.382 8.46352 14.5395 8.14903 13.662 8.10606H13.664ZM13.71 11.3001L13.825 11.3031C13.9454 11.3075 14.0636 11.3357 14.173 11.3862C14.2823 11.4367 14.3806 11.5083 14.462 11.5971C14.5432 11.6855 14.6061 11.7892 14.647 11.9021C14.688 12.0151 14.706 12.1351 14.701 12.2551C14.701 12.4471 14.643 12.6351 14.535 12.7931C14.427 12.9511 14.273 13.0741 14.094 13.1441C13.915 13.2141 13.719 13.2281 13.532 13.1851C13.345 13.1421 13.175 13.0431 13.045 12.9021C12.915 12.7611 12.83 12.5831 12.803 12.3931C12.776 12.2031 12.805 12.0091 12.89 11.8361C12.975 11.6631 13.109 11.5201 13.276 11.4251C13.443 11.3301 13.635 11.2881 13.826 11.3031L13.71 11.3001ZM10.696 11.3031C10.8162 11.3072 10.9344 11.3352 11.0437 11.3853C11.1531 11.4354 11.2514 11.5067 11.333 11.5951C11.4144 11.6836 11.4775 11.7875 11.5185 11.9006C11.5595 12.0137 11.5777 12.1339 11.572 12.2541C11.5775 12.3742 11.559 12.4941 11.5179 12.6071C11.4767 12.72 11.4135 12.8237 11.332 12.9121C11.2506 13.0005 11.1525 13.0719 11.0433 13.1222C10.9342 13.1725 10.8161 13.2006 10.696 13.2051C10.457 13.1851 10.234 13.0771 10.072 12.9001C9.91001 12.7231 9.82001 12.4931 9.82001 12.2531C9.82001 12.0131 9.91001 11.7821 10.072 11.6061C10.234 11.4301 10.457 11.3211 10.696 11.3011V11.3031Z" fill="#BDBDBD"/>
</g>
<defs>
<clipPath id="clip0_1_77">
<rect width="24" height="24" fill="white" transform="translate(0.25 0.683105)"/>
</clipPath>
</defs>
</svg>
