<svg width="33" height="33" viewBox="0 0 33 33" fill="none" xmlns="http://www.w3.org/2000/svg">
<g clip-path="url(#clip0_1_189)">
<path d="M6.64455 0.901582C7.01962 0.52651 7.52833 0.315796 8.05876 0.315796H10.3787C10.7351 0.315796 10.9136 0.746653 10.6616 0.998639L0.932842 10.7274C0.680856 10.9794 0.25 10.8009 0.25 10.4445L0.25 8.12456C0.25 7.59413 0.460714 7.08542 0.835787 6.71035L6.64455 0.901582Z" fill="#5E6B7E"/>
<path d="M0.835786 26.2314C0.460714 25.8564 0.25 25.3477 0.25 24.8172L0.25 22.4973C0.25 22.1409 0.680857 21.9624 0.932843 22.2144L10.3514 31.633C10.6034 31.8849 10.4249 32.3158 10.0685 32.3158H7.74857C7.21813 32.3158 6.70943 32.1051 6.33435 31.73L0.835786 26.2314Z" fill="#5E6B7E"/>
<path d="M26.4758 31.73C26.1007 32.1051 25.592 32.3158 25.0615 32.3158H22.7416C22.3852 32.3158 22.2067 31.8849 22.4587 31.633L31.5672 22.5245C31.8191 22.2725 32.25 22.451 32.25 22.8074V25.1273C32.25 25.6578 32.0393 26.1665 31.6642 26.5416L26.4758 31.73Z" fill="#5E6B7E"/>
<path d="M32.25 7.81446C32.25 7.28403 32.0393 6.77532 31.6642 6.40025L26.1656 0.901583C25.7905 0.52651 25.2818 0.315796 24.7513 0.315796H22.4314C22.075 0.315796 21.8965 0.746653 22.1485 0.998639L31.5672 10.4173C31.8191 10.6692 32.25 10.4908 32.25 10.1344V7.81446Z" fill="#5E6B7E"/>
<path d="M19.1591 24.0812C19.1591 24.4375 19.5899 24.616 19.8419 24.364L27.0545 17.1515C27.445 16.7609 27.445 16.1278 27.0545 15.7372L19.8419 8.52466C19.5899 8.27268 19.1591 8.45114 19.1591 8.80751V11.1275C19.1591 11.6579 19.3698 12.1666 19.7449 12.5417L22.9404 15.7372C23.3309 16.1278 23.3309 16.7609 22.9404 17.1515L19.7449 20.347C19.3698 20.7221 19.1591 21.2308 19.1591 21.7612V24.0812Z" fill="#5E6B7E"/>
<path d="M13.3409 11.4376C13.3409 11.9681 13.1302 12.4768 12.7551 12.8518L9.86971 15.7372C9.47919 16.1278 9.47919 16.7609 9.86971 17.1515L12.7551 20.0369C13.1302 20.4119 13.3409 20.9207 13.3409 21.4511V23.7711C13.3409 24.1274 12.91 24.3059 12.6581 24.0539L5.75563 17.1515C5.36511 16.7609 5.36511 16.1278 5.75564 15.7372L12.658 8.83482C12.91 8.58283 13.3409 8.7613 13.3409 9.11766V11.4376Z" fill="#5E6B7E"/>
</g>
<defs>
<clipPath id="clip0_1_189">
<rect width="32" height="32" fill="white" transform="translate(0.25 0.315796)"/>
</clipPath>
</defs>
</svg>
