<svg width="33" height="33" viewBox="0 0 33 33" fill="none" xmlns="http://www.w3.org/2000/svg">
<g clip-path="url(#clip0_1_267)">
<path d="M6.70545 5.50239C4.3183 6.99436 3.12882 8.86928 3.12882 10.6972C3.12882 12.5251 3.53619 13.6848 7.49246 16.1517C10.4015 17.66 22.2214 21.9969 22.2214 21.9969C23.0605 22.2174 24.5689 22.7834 25.333 23.091C26.0207 23.4019 26.6704 23.748 27.2758 24.1264C30.1531 25.9247 32.2197 28.5952 32.2197 31.7881C32.2197 31.91 32.2167 32.0313 32.2107 32.1517H29.295C29.3054 32.0304 29.3106 31.9091 29.3106 31.7881C29.3106 29.9602 28.1211 28.0852 25.734 26.5933C24.8973 26.0703 23.9364 25.612 22.8764 25.2379C22.8764 25.2379 8.20841 20.17 5.31064 18.3588C1.36359 15.8919 0.219727 13.89 0.219727 10.6972C0.219727 7.50432 2.28636 4.83378 5.16363 3.03549C8.0614 1.22438 11.9741 0.151733 16.2197 0.151733C20.4653 0.151733 24.378 1.22438 27.2758 3.03549C30.1531 4.83378 32.2197 7.50432 32.2197 10.6972C32.2197 13.89 30.1531 16.5606 27.2758 18.3588C26.7106 18.7121 26.1068 19.0372 25.4695 19.3318L21.5377 17.66C23.1356 17.2348 24.5575 16.6272 25.734 15.8919C28.1211 14.4 29.3106 12.5251 29.3106 10.6972C29.3106 8.86928 28.1211 6.99436 25.734 5.50239C23.3673 4.02324 20.0073 3.06082 16.2197 3.06082C12.4321 3.06082 9.0721 4.02324 6.70545 5.50239Z" fill="#5E6B7E"/>
<path d="M6.70545 26.5933C4.3183 28.0852 3.12882 29.9602 3.12882 31.7881C3.12882 31.9091 3.13404 32.0304 3.14447 32.1517H0.228706C0.222743 32.0313 0.219727 31.91 0.219727 31.7881C0.219727 28.5952 2.28636 25.9247 5.16363 24.1264C5.80763 23.7239 6.50177 23.3578 7.23854 23.0319L11.4053 24.6987C9.60193 25.1255 8.00413 25.7816 6.70545 26.5933Z" fill="#5E6B7E"/>
<path d="M22.7652 31.7881C22.7652 31.9115 22.7426 32.0329 22.6989 32.1517H9.74055C9.69687 32.0329 9.67427 31.9115 9.67427 31.7881C9.67427 30.3822 12.6047 29.2426 16.2197 29.2426C19.8347 29.2426 22.7652 30.3822 22.7652 31.7881Z" fill="#5E6B7E"/>
<path d="M16.2197 12.5153C19.8347 12.5153 22.7652 11.3757 22.7652 9.96989C22.7652 8.56408 19.8347 7.42444 16.2197 7.42444C12.6047 7.42444 9.67427 8.56408 9.67427 9.96989C9.67427 11.3757 12.6047 12.5153 16.2197 12.5153Z" fill="#5E6B7E"/>
</g>
<defs>
<clipPath id="clip0_1_267">
<rect width="32" height="32" fill="white" transform="translate(0.219727 0.151733)"/>
</clipPath>
</defs>
</svg>
