<svg width="33" height="33" viewBox="0 0 33 33" fill="none" xmlns="http://www.w3.org/2000/svg">
<g clip-path="url(#clip0_1_207)">
<path fill-rule="evenodd" clip-rule="evenodd" d="M22.6333 8.68451C22.078 11.1316 20.1516 13.0579 17.7045 13.6132V19.7558C20.1516 20.3111 22.078 22.2374 22.6333 24.6845H31.65C31.9814 24.6845 32.25 24.9531 32.25 25.2845V26.9936C32.25 27.325 31.9814 27.5936 31.65 27.5936H22.6333C21.9718 30.5085 19.365 32.6845 16.25 32.6845C13.135 32.6845 10.5282 30.5085 9.86674 27.5936H0.850001C0.51863 27.5936 0.25 27.325 0.25 26.9936V25.2845C0.25 24.9531 0.518629 24.6845 0.85 24.6845H9.86674C10.422 22.2374 12.3484 20.3111 14.7955 19.7558V13.6132C12.3484 13.0579 10.422 11.1316 9.86674 8.68451H0.85C0.518629 8.68451 0.25 8.41588 0.25 8.08451V6.37542C0.25 6.04405 0.51863 5.77542 0.850001 5.77542H9.86674C10.5282 2.86053 13.135 0.684509 16.25 0.684509C19.365 0.684509 21.9718 2.86053 22.6333 5.77542H31.65C31.9814 5.77542 32.25 6.04405 32.25 6.37542V8.08451C32.25 8.41588 31.9814 8.68451 31.65 8.68451H22.6333ZM16.25 10.8663C18.2583 10.8663 19.8864 9.23827 19.8864 7.22996C19.8864 5.22166 18.2583 3.5936 16.25 3.5936C14.2417 3.5936 12.6136 5.22166 12.6136 7.22996C12.6136 9.23827 14.2417 10.8663 16.25 10.8663ZM16.25 29.7754C18.2583 29.7754 19.8864 28.1474 19.8864 26.139C19.8864 24.1307 18.2583 22.5027 16.25 22.5027C14.2417 22.5027 12.6136 24.1307 12.6136 26.139C12.6136 28.1474 14.2417 29.7754 16.25 29.7754Z" fill="#5E6B7E"/>
<path d="M22.7955 15.83C22.7955 15.4986 23.0641 15.23 23.3955 15.23H31.65C31.9814 15.23 32.25 15.4986 32.25 15.83V17.539C32.25 17.8704 31.9814 18.139 31.65 18.139H23.3955C23.0641 18.139 22.7955 17.8704 22.7955 17.539V15.83Z" fill="#5E6B7E"/>
<path d="M9.70455 15.83C9.70455 15.4986 9.43592 15.23 9.10455 15.23H0.85C0.518629 15.23 0.25 15.4986 0.25 15.83V17.539C0.25 17.8704 0.518629 18.139 0.849999 18.139H9.10455C9.43592 18.139 9.70455 17.8704 9.70455 17.539V15.83Z" fill="#5E6B7E"/>
</g>
<defs>
<clipPath id="clip0_1_207">
<rect width="32" height="32" fill="white" transform="translate(0.25 0.684509)"/>
</clipPath>
</defs>
</svg>
