<svg width="33" height="33" viewBox="0 0 33 33" fill="none" xmlns="http://www.w3.org/2000/svg">
<g clip-path="url(#clip0_1_249)">
<path fill-rule="evenodd" clip-rule="evenodd" d="M22.9001 16.9033C22.9001 15.6507 22.5554 14.4786 21.9556 13.4768L31.7954 3.63698C32.0297 3.40267 32.0297 3.02277 31.7954 2.78845L30.3346 1.32759C30.1003 1.09328 29.7204 1.09328 29.486 1.32759L19.6462 11.1674C18.6443 10.5677 17.4723 10.223 16.2197 10.223C14.9671 10.223 13.7951 10.5677 12.7932 11.1674L2.95339 1.32766C2.71907 1.09335 2.33918 1.09335 2.10486 1.32766L0.643999 2.78853C0.409683 3.02284 0.409683 3.40274 0.643999 3.63706L10.4838 13.4768C9.88407 14.4787 9.53933 15.6507 9.53933 16.9033C9.53933 18.1559 9.88406 19.328 10.4838 20.3298L0.644009 30.1696C0.409693 30.4039 0.409693 30.7838 0.644008 31.0181L2.10487 32.479C2.33919 32.7133 2.71909 32.7133 2.9534 32.479L12.7932 22.6392C13.795 23.239 14.9671 23.5837 16.2197 23.5837C17.4723 23.5837 18.6443 23.239 19.6462 22.6392L29.486 32.479C29.7204 32.7134 30.1003 32.7134 30.3346 32.479L31.7954 31.0182C32.0297 30.7839 32.0297 30.404 31.7954 30.1696L21.9556 20.3298C22.5554 19.328 22.9001 18.1559 22.9001 16.9033ZM16.2197 20.6146C18.2694 20.6146 19.9311 18.953 19.9311 16.9033C19.9311 14.8536 18.2694 13.192 16.2197 13.192C14.17 13.192 12.5084 14.8536 12.5084 16.9033C12.5084 18.953 14.17 20.6146 16.2197 20.6146Z" fill="#5E6B7E"/>
<path d="M17.4754 5.76936C17.8068 5.76936 18.0754 5.50073 18.0754 5.16936V1.91577C18.0754 1.58439 17.8068 1.31577 17.4754 1.31577H14.964C14.6327 1.31577 14.364 1.58439 14.364 1.91577V5.16936C14.364 5.50073 14.6327 5.76936 14.964 5.76936H17.4754Z" fill="#5E6B7E"/>
<path d="M17.4754 28.0373C17.8068 28.0373 18.0754 28.3059 18.0754 28.6373V31.8909C18.0754 32.2223 17.8068 32.4909 17.4754 32.4909H14.964C14.6327 32.4909 14.364 32.2223 14.364 31.8909V28.6373C14.364 28.3059 14.6327 28.0373 14.964 28.0373H17.4754Z" fill="#5E6B7E"/>
<path d="M27.3537 15.6477C27.3537 15.3163 27.6224 15.0477 27.9537 15.0477H31.2073C31.5387 15.0477 31.8073 15.3163 31.8073 15.6477V18.159C31.8073 18.4904 31.5387 18.759 31.2073 18.759H27.9537C27.6224 18.759 27.3537 18.4904 27.3537 18.159V15.6477Z" fill="#5E6B7E"/>
<path d="M5.08572 15.6477C5.08572 15.3163 4.81709 15.0477 4.48572 15.0477H1.23211C0.90074 15.0477 0.632111 15.3163 0.632111 15.6477V18.159C0.632111 18.4904 0.900739 18.759 1.23211 18.759H4.48572C4.81709 18.759 5.08572 18.4904 5.08572 18.159V15.6477Z" fill="#5E6B7E"/>
</g>
<defs>
<clipPath id="clip0_1_249">
<rect width="32" height="32" fill="white" transform="translate(0.219727 0.90332)"/>
</clipPath>
</defs>
</svg>
