<svg width="33" height="33" viewBox="0 0 33 33" fill="none" xmlns="http://www.w3.org/2000/svg">
<g clip-path="url(#clip0_1_221)">
<path d="M13.7094 3.49474C13.996 3.43482 14.2079 3.18622 14.2079 2.89333V0.902994C14.2079 0.660501 13.9937 0.473415 13.7545 0.513237C12.2349 0.766214 10.7877 1.23432 9.44471 1.88536C9.24231 1.98348 9.11692 2.19038 9.11692 2.41532V4.68245C9.11692 5.00265 9.47628 5.19563 9.7518 5.03247C10.9601 4.31698 12.2928 3.79086 13.7094 3.49474Z" fill="#5E6B7E"/>
<path fill-rule="evenodd" clip-rule="evenodd" d="M4.75329 10.194C4.75329 10.2895 4.73027 10.3835 4.68752 10.469C3.79901 12.2437 3.29874 14.2484 3.29874 16.3704C3.29874 20.8181 5.49646 24.7502 8.86045 27.1304C8.55572 26.28 8.38965 25.3632 8.38965 24.4074C8.38965 20.4677 11.2113 17.1901 14.9352 16.5029V8.56799C14.9352 8.23662 15.2038 7.96799 15.5352 7.96799H17.2442C17.5756 7.96799 17.8442 8.23662 17.8442 8.56799V16.5029C21.5681 17.1901 24.3897 20.4677 24.3897 24.4074C24.3897 25.3632 24.2236 26.28 23.9188 27.1304C27.2829 24.7502 29.4806 20.8181 29.4806 16.3704C29.4806 13.7463 28.7155 11.3016 27.3974 9.24925C27.3337 9.15016 27.2987 9.03521 27.2987 8.91744V5.53452C27.2987 5.18442 27.7125 5.00796 27.9538 5.26152C30.7017 8.1478 32.3897 12.0611 32.3897 16.3704C32.3897 25.2479 25.2262 32.4445 16.3897 32.4445C7.55309 32.4445 0.389648 25.2479 0.389648 16.3704C0.389649 12.4627 1.7776 8.88073 4.08525 6.09485C4.31642 5.81577 4.75329 5.98524 4.75329 6.34763V10.194ZM16.3897 29.5219C19.2013 29.5219 21.4806 27.2321 21.4806 24.4074C21.4806 21.5828 19.2013 19.293 16.3897 19.293C13.5781 19.293 11.2988 21.5828 11.2988 24.4074C11.2988 27.2321 13.5781 29.5219 16.3897 29.5219Z" fill="#5E6B7E"/>
<path d="M22.9351 2.0861C22.9351 1.85017 22.7972 1.63519 22.5798 1.54348C21.4544 1.06871 20.2636 0.719481 19.0248 0.513237C18.7856 0.473415 18.5714 0.660506 18.5714 0.902996V2.89333C18.5714 3.18622 18.7833 3.43482 19.07 3.49475C20.2172 3.73456 21.3094 4.12523 22.3251 4.64518C22.5996 4.78573 22.9351 4.5916 22.9351 4.28317V2.0861Z" fill="#5E6B7E"/>
</g>
<defs>
<clipPath id="clip0_1_221">
<rect width="32" height="32" fill="white" transform="translate(0.389648 0.444458)"/>
</clipPath>
</defs>
</svg>
