<svg width="33" height="33" viewBox="0 0 33 33" fill="none" xmlns="http://www.w3.org/2000/svg">
<g clip-path="url(#clip0_1_236)">
<path fill-rule="evenodd" clip-rule="evenodd" d="M21.4806 1.5115C27.8213 3.63805 32.3897 9.6278 32.3897 16.6845C32.3897 23.7413 27.8213 29.731 21.4806 31.8576L19.0809 32.5397C18.8255 32.6123 18.5715 32.4205 18.5715 32.155V21.7243C17.7157 22.2194 16.7222 22.5027 15.6624 22.5027C12.4491 22.5027 9.8442 19.8978 9.8442 16.6845C9.8442 13.4712 12.4491 10.8663 15.6624 10.8663C16.7222 10.8663 17.7157 11.1496 18.5715 11.6447V1.21408C18.5715 0.948554 18.8255 0.756723 19.0809 0.829328L21.4806 1.5115ZM21.4806 28.7487C26.1816 26.7625 29.4806 22.1088 29.4806 16.6845C29.4806 11.2603 26.1816 6.60663 21.4806 4.62043V28.7487ZM18.5715 16.6825C18.5704 15.0768 17.2684 13.7754 15.6624 13.7754C14.0558 13.7754 12.7533 15.0779 12.7533 16.6845C12.7533 18.2911 14.0558 19.5936 15.6624 19.5936C17.2684 19.5936 18.5704 18.2922 18.5715 16.6865V16.6825Z" fill="#5E6B7E"/>
<path d="M13.0091 32.3267C13.2534 32.3793 13.4805 32.1904 13.4805 31.9405V29.7705C13.4805 29.5836 13.3506 29.4223 13.1695 29.3764C7.49668 27.9416 3.29874 22.8033 3.29874 16.6845C3.29874 10.5658 7.49668 5.42746 13.1695 3.99262C13.3506 3.94681 13.4805 3.78543 13.4805 3.59862V1.42853C13.4805 1.17867 13.2534 0.989793 13.0091 1.04233C5.7961 2.59376 0.389648 9.00778 0.389648 16.6845C0.389648 24.3613 5.7961 30.7753 13.0091 32.3267Z" fill="#5E6B7E"/>
</g>
<defs>
<clipPath id="clip0_1_236">
<rect width="32" height="32" fill="white" transform="translate(0.389648 0.684509)"/>
</clipPath>
</defs>
</svg>
