<svg width="25" height="25" viewBox="0 0 25 25" fill="none" xmlns="http://www.w3.org/2000/svg">
<g clip-path="url(#clip0_1_85)">
<path d="M15.642 4.54004C16.8635 4.54223 18.0374 5.01391 18.9208 5.85748C19.8042 6.70106 20.3295 7.85196 20.388 9.07204L20.393 9.28904V16.075C20.3908 17.2965 19.9191 18.4704 19.0755 19.3538C18.232 20.2372 17.0811 20.7625 15.861 20.821L15.644 20.826H8.85799C7.63651 20.8238 6.46262 20.3522 5.57921 19.5086C4.6958 18.665 4.1705 17.5141 4.11199 16.294L4.10699 16.077V9.29104C4.10919 8.06956 4.58087 6.89566 5.42444 6.01226C6.26801 5.12885 7.41891 4.60355 8.63899 4.54504L8.85599 4.54004H15.642ZM12.25 8.61104C10.005 8.61104 8.17899 10.437 8.17899 12.682C8.17899 14.927 10.004 16.754 12.25 16.754C14.496 16.754 16.321 14.928 16.321 12.683C16.321 10.438 14.495 8.61104 12.25 8.61104ZM12.25 9.96804C13.749 9.96804 14.964 11.183 14.964 12.682C14.964 14.181 13.749 15.397 12.25 15.397C10.751 15.397 9.53599 14.182 9.53599 12.683C9.53599 11.184 10.751 9.96904 12.25 9.96904V9.96804ZM17 7.25404C16.82 7.2543 16.6474 7.32593 16.5202 7.45321C16.3929 7.58049 16.3213 7.75304 16.321 7.93304C16.3213 8.11304 16.3929 8.28559 16.5202 8.41287C16.6474 8.54015 16.82 8.61177 17 8.61204C17.18 8.61177 17.3525 8.54015 17.4798 8.41287C17.6071 8.28559 17.6787 8.11304 17.679 7.93304C17.6787 7.75304 17.6071 7.58049 17.4798 7.45321C17.3525 7.32593 17.18 7.2543 17 7.25404Z" fill="#BDBDBD"/>
</g>
<defs>
<clipPath id="clip0_1_85">
<rect width="24" height="24" fill="white" transform="translate(0.25 0.683105)"/>
</clipPath>
</defs>
</svg>
