<svg width="25" height="25" viewBox="0 0 25 25" fill="none" xmlns="http://www.w3.org/2000/svg">
<g clip-path="url(#clip0_1_89)">
<path d="M20.787 5.91605C20.773 5.85305 20.743 5.79405 20.699 5.74705C20.655 5.70005 20.6 5.66405 20.538 5.64505C20.313 5.60105 20.08 5.61705 19.864 5.69305C19.864 5.69305 4.84401 11.091 3.98701 11.689C3.80201 11.818 3.74001 11.892 3.70901 11.98C3.56101 12.405 4.02201 12.593 4.02201 12.593L7.89301 13.855C7.95839 13.8662 8.02548 13.8621 8.08901 13.843L17.41 8.07905C17.482 8.05705 17.536 8.07905 17.524 8.13305C17.335 8.77905 10.445 14.903 10.406 14.94C10.388 14.955 10.373 14.975 10.364 14.997C10.355 15.019 10.351 15.043 10.353 15.067L9.99301 18.844C9.99301 18.844 9.84201 20.023 11.018 18.844C11.852 18.009 12.652 17.318 13.054 16.982C14.385 17.901 15.818 18.917 16.435 19.446C16.539 19.547 16.661 19.625 16.796 19.6781C16.931 19.7311 17.075 19.754 17.219 19.75C17.808 19.727 17.969 19.083 17.969 19.083C17.969 19.083 20.705 8.07105 20.798 6.59605C20.807 6.45105 20.819 6.35905 20.82 6.26005C20.825 6.14505 20.814 6.03005 20.786 5.91805L20.787 5.91605Z" fill="#BDBDBD"/>
</g>
<defs>
<clipPath id="clip0_1_89">
<rect width="24" height="24" fill="white" transform="translate(0.25 0.683105)"/>
</clipPath>
</defs>
</svg>
