<svg width="25" height="25" viewBox="0 0 25 25" fill="none" xmlns="http://www.w3.org/2000/svg">
<g clip-path="url(#clip0_1_81)">
<path d="M20.821 7.37999C20.178 7.64799 19.535 7.86199 18.785 7.91599C19.535 7.48699 20.071 6.79099 20.339 5.98699C19.643 6.41599 18.893 6.68299 18.089 6.84399C17.446 6.14799 16.535 5.71899 15.571 5.71899C13.642 5.71899 12.035 7.27299 12.035 9.25499C12.035 9.52299 12.089 9.79099 12.142 10.059C9.19602 9.89799 6.62402 8.50499 4.85602 6.36299C4.53513 6.89649 4.3683 7.50845 4.37402 8.13099C4.37402 9.36299 5.01702 10.435 5.92802 11.077C5.33902 11.077 4.80302 10.916 4.32102 10.648V10.702C4.32102 12.416 5.55302 13.809 7.16002 14.131C6.83902 14.184 6.57102 14.238 6.24902 14.238C6.03502 14.238 5.82002 14.238 5.60602 14.184C6.03502 15.577 7.37402 16.595 8.87402 16.648C7.69502 17.612 6.14202 18.148 4.48102 18.148C4.21302 18.148 3.89202 18.148 3.62402 18.094C5.23102 19.058 7.10602 19.648 9.08802 19.648C15.57 19.648 19.106 14.291 19.106 9.62999V9.20099C19.749 8.66499 20.339 8.07599 20.821 7.37999Z" fill="#BDBDBD"/>
</g>
<defs>
<clipPath id="clip0_1_81">
<rect width="24" height="24" fill="white" transform="translate(0.25 0.683105)"/>
</clipPath>
</defs>
</svg>
